HIERARCHY
ROOT ui
{
	 OFFSET 0 0 0
	 CHANNELS 3 XPosition YPosition Z Position
	 EndSite
	 {
	 OFFSET 0 -1 0
	 }
}
ROOT li
{
	 OFFSET 0 0 0
	 CHANNELS 3 XPosition YPosition Z Position
	 EndSite
	 {
	 OFFSET 0 -1 0
	 }
}
ROOT ul
{
	 OFFSET 0 0 0
	 CHANNELS 3 XPosition YPosition Z Position
	 EndSite
	 {
	 OFFSET 0 -1 0
	 }
}
ROOT ll
{
	 OFFSET 0 0 0
	 CHANNELS 3 XPosition YPosition Z Position
	 EndSite
	 {
	 OFFSET 0 -1 0
	 }
}
ROOT tt
{
	 OFFSET 0 0 0
	 CHANNELS 3 XPosition YPosition Z Position
	 EndSite
	 {
	 OFFSET 0 -1 0
	 }
}
ROOT tb
{
	 OFFSET 0 0 0
	 CHANNELS 3 XPosition YPosition Z Position
	 EndSite
	 {
	 OFFSET 0 -1 0
	 }
}
ROOT td
{
	 OFFSET 0 0 0
	 CHANNELS 3 XPosition YPosition Z Position
	 EndSite
	 {
	 OFFSET 0 -1 0
	 }
}
ROOT v
{
	 OFFSET 0 0 0
	 CHANNELS 3 XPosition YPosition Z Position
	 EndSite
	 {
	 OFFSET 0 -1 0
	 }
}
ROOT bn
{
	 OFFSET 0 0 0
	 CHANNELS 3 XPosition YPosition Z Position
	 EndSite
	 {
	 OFFSET 0 -1 0
	 }
}
MOTION
Frames: 16
Frame Time: 0.002
-0.01159429931640625	-0.001472548007965088	0		0.4635320739746094	-2.386310546875	0		-0.9553687133789063	0.15700735473632813	0		-0.7309828491210938	-2.57285546875	0		1.5969693603515625	-0.6942344970703125	0		3.35595361328125	-0.1981505584716797	0		4.67341357421875	-0.04199151611328125	0		5.57425244140625	0.08328878784179687	0		-0.07253668212890625	5.9401962890625	0		
0.0428076057434082	-0.001846390962600708	0		0.474037841796875	-2.39230859375	0		-0.9519437255859375	0.16097489929199219	0		-0.7273865966796875	-2.568873779296875	0		1.605392578125	-0.6971458740234375	0		3.385321533203125	-0.20411643981933594	0		4.67281005859375	-0.041651741027832034	0		5.573650390625	0.08369763946533203	0		-0.05742786026000977	5.950125	0		
-8.490740060806274E-4	0.0015401359796524048	0		0.4426414794921875	-2.373990234375	0		-0.9706421508789063	0.1601068115234375	0		-0.7978179321289063	-2.5563232421875	0		1.6077840576171876	-0.6930241088867187	0		3.385730224609375	-0.1938722686767578	0		4.66218505859375	-0.03325636291503906	0		5.58208056640625	0.09901084136962891	0		-0.05648271560668945	5.94815478515625	0		
0.04844083786010742	0.005192842960357666	0		0.4939591064453125	-2.3843271484375	0		-0.8753859252929688	0.16034797668457032	0		-0.7264827270507812	-2.56588623046875	0		1.59810009765625	-0.690822509765625	0		3.387963134765625	-0.1986614227294922	0		4.6764384765625	-0.03307684326171875	0		5.58133544921875	0.09937064361572266	0		-0.09359296417236328	5.94447021484375	0		
-0.005395145893096924	-0.0023648159503936767	0		0.46331378173828125	-2.38403759765625	0		-0.9541680908203125	0.16093203735351563	0		-0.72914208984375	-2.568878173828125	0		1.6393529052734375	-0.6920263061523437	0		3.35915283203125	-0.2042298278808594	0		4.65559521484375	-0.040647544860839845	0		5.571439453125	0.08477564239501953	0		-0.07672300720214843	5.94035888671875	0		
0.03981536865234375	-0.0016911859512329101	0		0.49062396240234374	-2.386202392578125	0		-0.959002685546875	0.1569389190673828	0		-0.7417601928710937	-2.562798828125	0		1.5935784912109374	-0.6935735473632813	0		3.392358642578125	-0.2052921142578125	0		4.64886279296875	-0.031348556518554685	0		5.57063916015625	0.08508625793457031	0		-0.07683097076416015	5.93937255859375	0		
-0.03901687240600586	-0.005078495025634766	0		0.44492828369140625	-2.386818359375	0		-0.9947830810546875	0.16117709350585938	0		-0.7684630737304687	-2.565618408203125	0		1.595830322265625	-0.6905007934570313	0		3.391564453125	-0.20510992431640626	0		4.653984375	-0.040160774230957035	0		5.5748837890625	0.09233515167236328	0		-0.1129655532836914	5.9336533203125	0		
0.04526072311401367	0.005292417049407959	0		0.49327658081054687	-2.381154052734375	0		-0.9465346069335937	0.1687764892578125	0		-0.7641205444335938	-2.5616767578125	0		1.5990882568359375	-0.6864451293945313	0		3.384823486328125	-0.1978979797363281	0		4.658236328125	-0.031983917236328124	0		5.57813671875	0.10057008361816407	0		-0.04881938171386719	5.96217138671875	0		
-0.04155325698852539	0.002949911117553711	0		0.4625841064453125	-2.380897705078125	0		-0.9573950805664062	0.16082237243652345	0		-0.7298372192382813	-2.565960693359375	0		1.594293701171875	-0.6903370361328125	0		3.37298583984375	-0.20466201782226562	0		4.67243701171875	-0.03189788818359375	0		5.57327880859375	0.0928460464477539	0		-0.0649539794921875	5.95029248046875	0		
0.03966069030761719	0.0013449130058288575	0		0.5158477172851562	-2.38827392578125	0		-0.8801798095703125	0.16021121215820314	0		-0.7325349731445312	-2.568966064453125	0		1.5935445556640624	-0.69026611328125	0		3.38921728515625	-0.20464804077148438	0		4.65159716796875	-0.03956448364257813	0		5.5724990234375	0.0930732650756836	0		-0.08203804016113281	5.94041796875	0		
-0.04611008834838867	-0.0010159529447555543	0		0.4592149353027344	-2.3838330078125	0		-0.9589342651367188	0.16076487731933595	0		-0.7352072143554688	-2.57097119140625	0		1.6287510986328124	-0.6994685668945313	0		3.361489501953125	-0.20231790161132812	0		4.665841796875	-0.039507484436035155	0		5.56669287109375	0.08631965637207031	0		-0.11804825592041016	5.934681640625	0		
0.03517071151733398	-0.0016183249950408936	0		0.46954010009765623	-2.3888935546875	0		-0.9536937255859375	0.15569387817382813	0		-0.8077700805664062	-2.561458740234375	0		1.5921248779296875	-0.690143310546875	0		3.364823486328125	-0.19623045349121093	0		4.6551806640625	-0.031279823303222654	0		5.57508349609375	0.10144338989257813	0		-0.06784615325927734	5.9503056640625	0		
-0.00848033905029297	0.0017031420469284058	0		0.474989501953125	-2.381919677734375	0		-0.9453141479492188	0.1636025390625	0		-0.7283689575195312	-2.56206787109375	0		1.595500732421875	-0.6861206665039062	0		3.40112451171875	-0.20039671325683595	0		4.6545029296875	-0.031140838623046875	0		5.57440625	0.10161630249023437	0		-0.08667085266113281	5.95443994140625	0		
0.03689444351196289	0.0013688199520111085	0		0.46145281982421876	-2.378808349609375	0		-0.960964111328125	0.1606900634765625	0		-0.7679219970703125	-2.561798583984375	0		1.5908663330078125	-0.6900444946289063	0		3.384572509765625	-0.19118373107910155	0		4.668875	-0.031126220703125	0		5.573779296875	0.10177143096923828	0		-0.07047951507568359	5.95131591796875	0		
-0.01766532325744629	0.0027669510841369627	0		0.45892709350585936	-2.380780029296875	0		-0.9615364990234375	0.16066950988769532	0		-0.7454220581054688	-2.560982666015625	0		1.62927685546875	-0.6952884521484375	0		3.364870361328125	-0.209960205078125	0		4.66324560546875	-0.03897917938232422	0		5.569150390625	0.09393778991699218	0		-0.0862713851928711	5.9404267578125	0		
0.03675661468505859	-0.006632098197937012	0		0.45644363403320315	-2.38375390625	0		-0.96205078125	0.16065150451660157	0		-0.8119000854492188	-2.56351513671875	0		1.5867960205078124	-0.69294677734375	0		3.3684072265625	-0.20391792297363281	0		4.64773291015625	-0.0387755126953125	0		5.56358642578125	0.08709166717529297	0		-0.08690537261962891	5.94042724609375	0		
